# xmcd
#
# Track frame offsets:
#	150
#	10377
#	22380
#	33377
#	47230
#	57032
#	67317
#	77290
#	88557
#	100435
#	112967
#	125370
#	138682
#	153029
#	166005
#	176587
#	186979
#	197266
#
# Disc length: 2781 seconds
# Revision: 0
# Processed by: cddbd v1.5.2PL0 Copyright (c) Steve Scherf et al.
# Submitted via: dBpowerAMP V12.0
#
DISCID=ec0adb12
DTITLE=Various Artist - Age/Chief Blues Story [CD1 of 2)
DYEAR=2011
DGENRE=Blues
TTITLE0=Junior Wells - Messing With The Kid
TTITLE1=Lillian Offitt - Will My Man Be Home Tonight
TTITLE2=G. "Davy" Crockett - Look Out Mable
TTITLE3=Elmore James - It Hurts Me Too
TTITLE4=Magic Sam - Every Night About This Time
TTITLE5=Frank Butler - I Can't Believe It
TTITLE6=Earl Hooker - Blues In D Natural
TTITLE7=Melvin Simpson - I Love My Baby
TTITLE8=Bobby and Lucy - I Feel So Strange
TTITLE9=Lillian Offitt - Oh Mama
TTITLE10=Elmore James - Cry For Me Baby
TTITLE11=G. "Davy" Crockett - Did You Ever Love Somebody
TTITLE12=Junior Wells - I Could Cry
TTITLE13=Magic Sam - My Love Is Your Love
TTITLE14=Melvin Simpson - Try And Understand
TTITLE15=Lillian Offitt - Shine On
TTITLE16=Bobby and Lucy - It's Nothing
TTITLE17=Earl Hooker and Junior Wells - Universal Rock
EXTD=
EXTT0=
EXTT1=
EXTT2=
EXTT3=
EXTT4=
EXTT5=
EXTT6=
EXTT7=
EXTT8=
EXTT9=
EXTT10=
EXTT11=
EXTT12=
EXTT13=
EXTT14=
EXTT15=
EXTT16=
EXTT17=
PLAYORDER=
